<svg xmlns="http://www.w3.org/2000/svg" viewBox="100 30 450 300">
  <path  fill="#39ace5" fill-opacity="0.55" d="M0,64L6.5,64C13,64,26,64,39,96C51.9,128,65,192,78,202.7C90.8,213,104,171,117,176C129.7,181,143,235,156,224C168.6,213,182,139,195,117.3C207.6,96,221,128,234,128C246.5,128,259,96,272,90.7C285.4,85,298,107,311,128C324.3,149,337,171,350,192C363.2,213,376,235,389,240C402.2,245,415,235,428,213.3C441.1,192,454,160,467,170.7C480,181,493,235,506,250.7C518.9,267,532,245,545,245.3C557.8,245,571,267,584,240C596.8,213,610,139,623,122.7C635.7,107,649,149,662,170.7C674.6,192,688,192,701,202.7C713.5,213,726,235,739,202.7C752.4,171,765,85,778,85.3C791.4,85,804,171,817,192C830.3,213,843,171,856,133.3C869.2,96,882,64,895,64C908.1,64,921,96,934,96C947,96,960,64,973,53.3C985.9,43,999,53,1012,85.3C1024.9,117,1038,171,1051,160C1063.8,149,1077,75,1090,48C1102.7,21,1116,43,1129,42.7C1141.6,43,1155,21,1168,53.3C1180.5,85,1194,171,1206,197.3C1219.5,224,1232,192,1245,181.3C1258.4,171,1271,181,1284,170.7C1297.3,160,1310,128,1323,112C1336.2,96,1349,96,1362,96C1375.1,96,1388,96,1401,96C1414.1,96,1427,96,1434,96L1440,96L1440,320L1433.5,320C1427,320,1414,320,1401,320C1388.1,320,1375,320,1362,320C1349.2,320,1336,320,1323,320C1310.3,320,1297,320,1284,320C1271.4,320,1258,320,1245,320C1232.4,320,1219,320,1206,320C1193.5,320,1181,320,1168,320C1154.6,320,1142,320,1129,320C1115.7,320,1103,320,1090,320C1076.8,320,1064,320,1051,320C1037.8,320,1025,320,1012,320C998.9,320,986,320,973,320C960,320,947,320,934,320C921.1,320,908,320,895,320C882.2,320,869,320,856,320C843.2,320,830,320,817,320C804.3,320,791,320,778,320C765.4,320,752,320,739,320C726.5,320,714,320,701,320C687.6,320,675,320,662,320C648.6,320,636,320,623,320C609.7,320,597,320,584,320C570.8,320,558,320,545,320C531.9,320,519,320,506,320C493,320,480,320,467,320C454.1,320,441,320,428,320C415.1,320,402,320,389,320C376.2,320,363,320,350,320C337.3,320,324,320,311,320C298.4,320,285,320,272,320C259.5,320,246,320,234,320C220.5,320,208,320,195,320C181.6,320,169,320,156,320C142.7,320,130,320,117,320C103.8,320,91,320,78,320C64.9,320,52,320,39,320C25.9,320,13,320,6,320L0,320Z"></path>
</svg>